<svg xmlns="http://www.w3.org/2000/svg" width="390" height="844" viewBox="0 0 390 844">
  <rect width="390" height="844" rx="42" fill="#f4f6fa"/>
  <rect x="139" y="15" width="112" height="30" rx="15" fill="#141821"/>
  <text x="28" y="94" font-family="Arial,sans-serif" font-size="17" fill="#141821">‹</text>
  <text x="195" y="94" text-anchor="middle" font-family="Arial,sans-serif" font-size="18" font-weight="700" fill="#141821">Order summary</text>
  <rect x="24" y="128" width="342" height="155" rx="20" fill="#18202b"/>
  <text x="44" y="161" font-family="Arial,sans-serif" font-size="12" font-weight="700" fill="#8ee3c5">ASO.DEV PRO</text>
  <text x="44" y="204" font-family="Arial,sans-serif" font-size="30" font-weight="700" fill="#fff">$48.00</text>
  <text x="44" y="232" font-family="Arial,sans-serif" font-size="13" fill="#aeb7c6">Annual plan · renews Aug 22, 2027</text>
  <circle cx="322" cy="183" r="26" fill="#8ee3c5"/>
  <path d="M310 184l9 9 17-22" fill="none" stroke="#18202b" stroke-width="6" stroke-linecap="round"/>
  <text x="24" y="331" font-family="Arial,sans-serif" font-size="13" font-weight="700" fill="#687386">PAYMENT METHOD</text>
  <rect x="24" y="347" width="342" height="78" rx="16" fill="#fff"/>
  <rect x="44" y="368" width="49" height="34" rx="8" fill="#20283a"/>
  <text x="68" y="390" text-anchor="middle" font-family="Arial,sans-serif" font-size="11" font-weight="700" fill="#fff">VISA</text>
  <text x="111" y="379" font-family="Arial,sans-serif" font-size="14" font-weight="700" fill="#141821">•••• 4242</text>
  <text x="111" y="401" font-family="Arial,sans-serif" font-size="12" fill="#7b8594">Expires 12/29</text>
  <text x="24" y="478" font-family="Arial,sans-serif" font-size="13" font-weight="700" fill="#687386">PRICE DETAILS</text>
  <rect x="24" y="494" width="342" height="176" rx="16" fill="#fff"/>
  <text x="44" y="535" font-family="Arial,sans-serif" font-size="14" fill="#687386">ASO.dev Pro</text>
  <text x="346" y="535" text-anchor="end" font-family="Arial,sans-serif" font-size="14" fill="#141821">$52.00</text>
  <text x="44" y="575" font-family="Arial,sans-serif" font-size="14" fill="#687386">Annual discount</text>
  <text x="346" y="575" text-anchor="end" font-family="Arial,sans-serif" font-size="14" fill="#188366">−$8.00</text>
  <text x="44" y="615" font-family="Arial,sans-serif" font-size="14" fill="#687386">Tax</text>
  <text x="346" y="615" text-anchor="end" font-family="Arial,sans-serif" font-size="14" fill="#141821">$4.00</text>
  <line x1="44" y1="636" x2="346" y2="636" stroke="#e1e5ec"/>
  <text x="44" y="660" font-family="Arial,sans-serif" font-size="15" font-weight="700" fill="#141821">Total</text>
  <text x="346" y="660" text-anchor="end" font-family="Arial,sans-serif" font-size="18" font-weight="700" fill="#141821">$48.00</text>
  <rect x="24" y="710" width="342" height="60" rx="17" fill="#188366"/>
  <text x="195" y="748" text-anchor="middle" font-family="Arial,sans-serif" font-size="16" font-weight="700" fill="#fff">Confirm purchase</text>
  <rect x="137" y="819" width="116" height="5" rx="2.5" fill="#141821"/>
</svg>
